<svg xmlns="http://www.w3.org/2000/svg" version="1.1" xmlns:xlink="http://www.w3.org/1999/xlink" xmlns:svgjs="http://svgjs.dev/svgjs" width="1500" height="363" viewBox="0 0 1500 363"><g transform="matrix(1,0,0,1,-0.9090909090911055,0.9305964808879423)"><svg viewBox="0 0 396 96" data-background-color="#ffffff" preserveAspectRatio="xMidYMid meet" height="363" width="1500" xmlns="http://www.w3.org/2000/svg" xmlns:xlink="http://www.w3.org/1999/xlink"><g id="tight-bounds" transform="matrix(1,0,0,1,0.24000000000003752,-0.24610816023482585)"><svg viewBox="0 0 395.5199999999999 96.49221632046968" height="96.49221632046968" width="395.5199999999999"><g><svg viewBox="0 0 553.6682169134258 135.07451799195746" height="96.49221632046968" width="395.5199999999999"><g transform="matrix(1,0,0,1,158.14821691342587,18.66804119859904)"><svg viewBox="0 0 395.52 97.73843559475938" height="97.73843559475938" width="395.52"><g id="textblocktransform"><svg viewBox="0 0 395.52 97.73843559475938" height="97.73843559475938" width="395.52" id="textblock"><g><svg viewBox="0 0 395.52 97.73843559475938" height="97.73843559475938" width="395.52"><g transform="matrix(1,0,0,1,0,0)"><svg width="395.52" viewBox="2.49 -36.01 188.19 46.51" height="97.73843559475938" data-palette-color="#b81d33"><g class="wordmark-text-0" data-fill-palette-color="primary" id="text-0"><path d="M22.19-31.2L13.65-31.2 13.65-26 22.19-26 22.19-21.19 13.65-21.19 13.65 0 8.84 0 8.84-21.19 2.49-21.19 2.49-26 8.84-26 8.84-31.2Q8.84-32.2 9.22-33.07 9.59-33.94 10.25-34.59 10.91-35.25 11.79-35.63 12.67-36.01 13.65-36.01L13.65-36.01 22.19-36.01 22.19-31.2ZM28.71-4.81L28.71-11.35Q28.71-12.35 29.09-13.22 29.47-14.09 30.11-14.75 30.76-15.41 31.64-15.78 32.52-16.16 33.49-16.16L33.49-16.16 45.9-16.16 45.9-21.19 30.2-21.19 30.2-26 45.9-26Q46.9-26 47.78-25.62 48.65-25.24 49.3-24.6 49.95-23.95 50.33-23.07 50.71-22.19 50.71-21.19L50.71-21.19 50.71 0 45.9 0 45.9-4.39Q45.82-3.49 45.41-2.69 44.99-1.88 44.35-1.28 43.7-0.68 42.87-0.34 42.04 0 41.11 0L41.11 0 33.49 0Q32.52 0 31.64-0.38 30.76-0.76 30.11-1.4 29.47-2.05 29.09-2.93 28.71-3.81 28.71-4.81L28.71-4.81ZM33.49-11.35L33.49-4.81 45.9-4.81 45.9-11.35 33.49-11.35ZM58.2-4.81L74.41-4.81 74.41-10.84 63.01-10.84Q62.01-10.84 61.13-11.22 60.25-11.6 59.6-12.24 58.95-12.89 58.58-13.77 58.2-14.65 58.2-15.65L58.2-15.65 58.2-21.19Q58.2-22.19 58.58-23.07 58.95-23.95 59.6-24.6 60.25-25.24 61.13-25.62 62.01-26 63.01-26L63.01-26 78.22-26 78.22-21.19 63.01-21.19 63.01-15.65 74.41-15.65Q75.41-15.65 76.28-15.27 77.14-14.89 77.8-14.25 78.46-13.6 78.84-12.72 79.22-11.84 79.22-10.84L79.22-10.84 79.22-4.81Q79.22-3.81 78.84-2.93 78.46-2.05 77.8-1.4 77.14-0.76 76.28-0.38 75.41 0 74.41 0L74.41 0 58.2 0 58.2-4.81ZM85.2-21.19L85.2-26 91.55-26 91.55-34.01 96.35-34.01 96.35-26 104.9-26 104.9-21.19 96.35-21.19 96.35-4.81 104.9-4.81 104.9 0 96.35 0Q95.38 0 94.5-0.38 93.62-0.76 92.96-1.4 92.3-2.05 91.92-2.93 91.55-3.81 91.55-4.81L91.55-4.81 91.55-21.19 85.2-21.19ZM127.6-21.19L117.69-21.19 117.69 0 112.91 0 112.91-26 117.69-26 117.69-21.41Q117.74-22.36 118.13-23.21 118.52-24.05 119.17-24.67 119.81-25.29 120.67-25.65 121.52-26 122.5-26L122.5-26 127.6-26Q128.6-26 129.47-25.62 130.34-25.24 131-24.6 131.66-23.95 132.03-23.07 132.41-22.19 132.41-21.19L132.41-21.19 132.41-16.8 127.6-16.8 127.6-21.19ZM138.39-4.81L138.39-11.35Q138.39-12.35 138.77-13.22 139.15-14.09 139.79-14.75 140.44-15.41 141.32-15.78 142.2-16.16 143.18-16.16L143.18-16.16 155.58-16.16 155.58-21.19 139.88-21.19 139.88-26 155.58-26Q156.58-26 157.46-25.62 158.34-25.24 158.98-24.6 159.63-23.95 160.01-23.07 160.39-22.19 160.39-21.19L160.39-21.19 160.39 0 155.58 0 155.58-4.39Q155.51-3.49 155.09-2.69 154.68-1.88 154.03-1.28 153.38-0.68 152.55-0.34 151.72 0 150.79 0L150.79 0 143.18 0Q142.2 0 141.32-0.38 140.44-0.76 139.79-1.4 139.15-2.05 138.77-2.93 138.39-3.81 138.39-4.81L138.39-4.81ZM143.18-11.35L143.18-4.81 155.58-4.81 155.58-11.35 143.18-11.35ZM174.94 10.5L170.15 10.5 175.6-2.34 165.39-26 170.44-26 178.04-8.11 185.63-26 190.68-26 174.94 10.5Z" fill="#b81d33" data-fill-palette-color="primary"></path></g></svg></g></svg></g></svg></g></svg></g><g><svg viewBox="0 0 135.07451799195746 135.07451799195746" height="135.07451799195746" width="135.07451799195746"><g><svg xmlns="http://www.w3.org/2000/svg" xmlns:xlink="http://www.w3.org/1999/xlink" version="1.1" x="0" y="0" viewBox="1 1 78 78" enable-background="new 0 0 80 80" xml:space="preserve" height="135.07451799195746" width="135.07451799195746" class="icon-icon-0" data-fill-palette-color="accent" id="icon-0"><path d="M40 1C18.5 1 1 18.5 1 40 1 61.51 18.5 79 40 79 61.512 79 79 61.51 79 40 79 18.5 61.512 1 40 1M40 77.5C19.291 77.5 2.5 60.71 2.5 40S19.291 2.5 40 2.5C60.711 2.5 77.5 19.29 77.5 40S60.711 77.5 40 77.5" fill="#fe6e63" data-fill-palette-color="accent"></path><path d="M52.54 23.75H27.46C25.42 23.75 23.75 25.42 23.75 27.46V52.54C23.75 54.58 25.42 56.25 27.46 56.25H52.54C54.58 56.25 56.25 54.58 56.25 52.54V27.46C56.25 25.42 54.58 23.75 52.54 23.75M54.75 52.54C54.75 53.76 53.76 54.75 52.54 54.75H27.46A2.21 2.21 0 0 1 25.25 52.54V27.46C25.25 26.24 26.24 25.25 27.46 25.25H52.54C53.76 25.25 54.75 26.24 54.75 27.46z" fill="#fe6e63" data-fill-palette-color="accent"></path><g fill="#fe6e63" data-fill-palette-color="accent"><path d="M29.667 19.021A0.75 0.75 0 0 0 28.917 19.771V21.979A0.75 0.75 0 0 0 30.417 21.979V19.771A0.75 0.75 0 0 0 29.667 19.021" fill="#fe6e63" data-fill-palette-color="accent"></path><path d="M33.8 19.021A0.75 0.75 0 0 0 33.05 19.771V21.979A0.75 0.75 0 0 0 34.55 21.979V19.771A0.75 0.75 0 0 0 33.8 19.021" fill="#fe6e63" data-fill-palette-color="accent"></path><path d="M37.934 19.021A0.75 0.75 0 0 0 37.184 19.771V21.979A0.75 0.75 0 0 0 38.684 21.979V19.771A0.75 0.75 0 0 0 37.934 19.021" fill="#fe6e63" data-fill-palette-color="accent"></path><path d="M42.066 19.021A0.75 0.75 0 0 0 41.316 19.771V21.979A0.75 0.75 0 0 0 42.816 21.979V19.771A0.75 0.75 0 0 0 42.066 19.021" fill="#fe6e63" data-fill-palette-color="accent"></path><path d="M46.2 19.021A0.75 0.75 0 0 0 45.45 19.771V21.979A0.75 0.75 0 0 0 46.95 21.979V19.771A0.75 0.75 0 0 0 46.2 19.021" fill="#fe6e63" data-fill-palette-color="accent"></path><path d="M50.333 19.021A0.75 0.75 0 0 0 49.583 19.771V21.979A0.75 0.75 0 0 0 51.083 21.979V19.771A0.75 0.75 0 0 0 50.333 19.021" fill="#fe6e63" data-fill-palette-color="accent"></path><path d="M29.667 57.271A0.75 0.75 0 0 0 28.917 58.021V60.229A0.75 0.75 0 0 0 30.417 60.229V58.021A0.75 0.75 0 0 0 29.667 57.271" fill="#fe6e63" data-fill-palette-color="accent"></path><path d="M33.8 57.271A0.75 0.75 0 0 0 33.05 58.021V60.229A0.75 0.75 0 0 0 34.55 60.229V58.021A0.75 0.75 0 0 0 33.8 57.271" fill="#fe6e63" data-fill-palette-color="accent"></path><path d="M37.934 57.271A0.75 0.75 0 0 0 37.184 58.021V60.229A0.75 0.75 0 0 0 38.684 60.229V58.021A0.75 0.75 0 0 0 37.934 57.271" fill="#fe6e63" data-fill-palette-color="accent"></path><path d="M42.066 57.271A0.75 0.75 0 0 0 41.316 58.021V60.229A0.75 0.75 0 0 0 42.816 60.229V58.021A0.75 0.75 0 0 0 42.066 57.271" fill="#fe6e63" data-fill-palette-color="accent"></path><path d="M46.2 57.271A0.75 0.75 0 0 0 45.45 58.021V60.229A0.75 0.75 0 0 0 46.95 60.229V58.021A0.75 0.75 0 0 0 46.2 57.271" fill="#fe6e63" data-fill-palette-color="accent"></path><path d="M50.333 57.271A0.75 0.75 0 0 0 49.583 58.021V60.229A0.75 0.75 0 0 0 51.083 60.229V58.021A0.75 0.75 0 0 0 50.333 57.271" fill="#fe6e63" data-fill-palette-color="accent"></path></g><g fill="#fe6e63" data-fill-palette-color="accent"><path d="M21.979 49.583H19.772A0.75 0.75 0 0 0 19.772 51.083H21.979A0.75 0.75 0 0 0 21.979 49.583" fill="#fe6e63" data-fill-palette-color="accent"></path><path d="M21.979 45.45H19.772A0.75 0.75 0 0 0 19.772 46.95H21.979A0.75 0.75 0 0 0 21.979 45.45" fill="#fe6e63" data-fill-palette-color="accent"></path><path d="M21.979 41.316H19.772A0.75 0.75 0 0 0 19.772 42.816H21.979A0.75 0.75 0 0 0 21.979 41.316" fill="#fe6e63" data-fill-palette-color="accent"></path><path d="M21.979 37.184H19.772A0.75 0.75 0 0 0 19.772 38.684H21.979A0.75 0.75 0 0 0 21.979 37.184" fill="#fe6e63" data-fill-palette-color="accent"></path><path d="M21.979 33.05H19.772A0.75 0.75 0 0 0 19.772 34.55H21.979A0.75 0.75 0 0 0 21.979 33.05" fill="#fe6e63" data-fill-palette-color="accent"></path><path d="M21.979 28.917H19.772A0.75 0.75 0 0 0 19.772 30.417H21.979A0.75 0.75 0 0 0 21.979 28.917" fill="#fe6e63" data-fill-palette-color="accent"></path><path d="M60.229 49.583H58.022A0.75 0.75 0 0 0 58.022 51.083H60.229A0.75 0.75 0 0 0 60.229 49.583" fill="#fe6e63" data-fill-palette-color="accent"></path><path d="M60.229 45.45H58.022A0.75 0.75 0 0 0 58.022 46.95H60.229A0.75 0.75 0 0 0 60.229 45.45" fill="#fe6e63" data-fill-palette-color="accent"></path><path d="M60.229 41.316H58.022A0.75 0.75 0 0 0 58.022 42.816H60.229A0.75 0.75 0 0 0 60.229 41.316" fill="#fe6e63" data-fill-palette-color="accent"></path><path d="M60.229 37.184H58.022A0.75 0.75 0 0 0 58.022 38.684H60.229A0.75 0.75 0 0 0 60.229 37.184" fill="#fe6e63" data-fill-palette-color="accent"></path><path d="M60.229 33.05H58.022A0.75 0.75 0 0 0 58.022 34.55H60.229A0.75 0.75 0 0 0 60.229 33.05" fill="#fe6e63" data-fill-palette-color="accent"></path><path d="M58.021 30.417H60.228A0.75 0.75 0 0 0 60.228 28.917H58.021A0.75 0.75 0 0 0 58.021 30.417" fill="#fe6e63" data-fill-palette-color="accent"></path></g></svg></g></svg></g></svg></g><defs></defs></svg><rect width="395.5199999999999" height="96.49221632046968" fill="none" stroke="none" visibility="hidden"></rect></g></svg></g></svg>